# xmcd
#
# Track frame offsets: 
#        150
#        15625
#        31230
#        44155
#        56767
#        70242
#        82212
#        94962
#        108437
#        121262
#        133775
#        148657
#        162000
#        174587
#        188900
#        204215
#        218482
#
# Disc length: 3066 seconds
#
# Revision: 1
# Processed by: cddbd v1.4PL0 Copyright (c) Steve Scherf et al.
# Submitted via: ExactAudioCopy v0.90b4
#
DISCID=f50bf811
DTITLE=Jimmie Rodgers - Country Legends
DYEAR=2002
DGENRE=Country
TTITLE0=Blue Yodel (T for Texas)
TTITLE1=Mississippi Delta Blues
TTITLE2=Peach Pickin' Time In Georgia
TTITLE3=My Blue Eyed Jane
TTITLE4=Train Whistle Blues
TTITLE5=Blue Yodel #9
TTITLE6=Let Me Be Your Side Track
TTITLE7=Blue Yodel # 8 (Mule Skinner Blues)
TTITLE8=My Good Gal's Gone Blues
TTITLE9=Travellin' Blues
TTITLE10=Jimmie's Mean Mama Blues
TTITLE11=Miss The Mississippi And You
TTITLE12=Any Old Time
TTITLE13=Why There's  A Tear In My Eye
TTITLE14=Gambling Polka Dot Blues
TTITLE15=No Hard Times
TTITLE16=Jimmie Rodgers' Last Blue Yodel
EXTD=
EXTT0=
EXTT1=
EXTT2=
EXTT3=
EXTT4=
EXTT5=
EXTT6=
EXTT7=
EXTT8=
EXTT9=
EXTT10=
EXTT11=
EXTT12=
EXTT13=
EXTT14=
EXTT15=
EXTT16=
PLAYORDER=
